<mxfile host="Electron" agent="Mozilla/5.0 (Windows NT 10.0; Win64; x64) AppleWebKit/537.36 (KHTML, like Gecko) draw.io/26.1.1 Chrome/132.0.6834.210 Electron/34.3.3 Safari/537.36" version="26.1.1">
  <diagram name="第 1 页" id="EVCYRyDYdP6Vd3KaGLjA">
    <mxGraphModel dx="1098" dy="807" grid="1" gridSize="10" guides="1" tooltips="1" connect="1" arrows="1" fold="1" page="1" pageScale="1" pageWidth="827" pageHeight="1169" math="0" shadow="0">
      <root>
        <mxCell id="0" />
        <mxCell id="1" parent="0" />
        <mxCell id="-h8XGQIfVDFtqBh_arIh-1" value="run.py&lt;div&gt;启动服务端&lt;/div&gt;" style="shape=parallelogram;perimeter=parallelogramPerimeter;whiteSpace=wrap;html=1;fixedSize=1;" vertex="1" parent="1">
          <mxGeometry x="120" y="140" width="120" height="60" as="geometry" />
        </mxCell>
        <mxCell id="-h8XGQIfVDFtqBh_arIh-2" value="__init__.py&lt;div&gt;Flask应用实例&lt;/div&gt;" style="shape=parallelogram;perimeter=parallelogramPerimeter;whiteSpace=wrap;html=1;fixedSize=1;" vertex="1" parent="1">
          <mxGeometry x="120" y="290" width="120" height="60" as="geometry" />
        </mxCell>
        <mxCell id="-h8XGQIfVDFtqBh_arIh-3" value="routes.py&lt;div&gt;Flask路由管理&lt;/div&gt;" style="shape=parallelogram;perimeter=parallelogramPerimeter;whiteSpace=wrap;html=1;fixedSize=1;" vertex="1" parent="1">
          <mxGeometry x="120" y="430" width="120" height="60" as="geometry" />
        </mxCell>
        <mxCell id="-h8XGQIfVDFtqBh_arIh-4" value="video_processor.py&lt;div&gt;图像处理脚本&lt;/div&gt;" style="shape=parallelogram;perimeter=parallelogramPerimeter;whiteSpace=wrap;html=1;fixedSize=1;" vertex="1" parent="1">
          <mxGeometry x="100" y="585" width="230" height="60" as="geometry" />
        </mxCell>
        <mxCell id="-h8XGQIfVDFtqBh_arIh-5" value="" style="shape=flexArrow;endArrow=classic;html=1;rounded=0;" edge="1" parent="1">
          <mxGeometry width="50" height="50" relative="1" as="geometry">
            <mxPoint x="180" y="210" as="sourcePoint" />
            <mxPoint x="180" y="270" as="targetPoint" />
          </mxGeometry>
        </mxCell>
        <mxCell id="-h8XGQIfVDFtqBh_arIh-8" value="" style="shape=flexArrow;endArrow=classic;html=1;rounded=0;" edge="1" parent="1">
          <mxGeometry width="50" height="50" relative="1" as="geometry">
            <mxPoint x="179.5" y="360" as="sourcePoint" />
            <mxPoint x="179.5" y="420" as="targetPoint" />
          </mxGeometry>
        </mxCell>
        <mxCell id="-h8XGQIfVDFtqBh_arIh-9" value="上级调用本函数内的intit_routes函数&lt;div&gt;1. 【/upload POST】当上传内容以.mp4 结尾时，保存到临时文件&lt;/div&gt;&lt;div&gt;2. 调用处理视频的函数process_video&lt;/div&gt;&lt;div&gt;3. 删除临时文件；输出成功标记&lt;/div&gt;" style="shape=hexagon;perimeter=hexagonPerimeter2;whiteSpace=wrap;html=1;fixedSize=1;" vertex="1" parent="1">
          <mxGeometry x="320" y="415" width="450" height="90" as="geometry" />
        </mxCell>
        <mxCell id="-h8XGQIfVDFtqBh_arIh-10" value="" style="shape=flexArrow;endArrow=classic;html=1;rounded=0;" edge="1" parent="1">
          <mxGeometry width="50" height="50" relative="1" as="geometry">
            <mxPoint x="320" y="490" as="sourcePoint" />
            <mxPoint x="250" y="570" as="targetPoint" />
          </mxGeometry>
        </mxCell>
      </root>
    </mxGraphModel>
  </diagram>
</mxfile>
